<svg width="162" height="50" viewBox="0 0 162 50" fill="none" xmlns="http://www.w3.org/2000/svg">
<mask id="path-1-outside-1_3010_686" maskUnits="userSpaceOnUse" x="0" y="0" width="162" height="50" fill="black">
<rect fill="white" width="162" height="50"/>
<path d="M1 0H162V50H1V0Z"/>
</mask>
<path d="M1 0H162V50H1V0Z" fill="#F7F7F8"/>
<path d="M2 50V0H0V50H2Z" fill="#DBDBDB" mask="url(#path-1-outside-1_3010_686)"/>
<path d="M26 31.2501H19V29.1667H26M29 27.0834H19V25.0001H29M29 22.9167H19V20.8334H29M31 16.6667H17C15.89 16.6667 15 17.5938 15 18.7501V33.3334C15 33.8859 15.2107 34.4159 15.5858 34.8066C15.9609 35.1973 16.4696 35.4167 17 35.4167H31C31.5304 35.4167 32.0391 35.1973 32.4142 34.8066C32.7893 34.4159 33 33.8859 33 33.3334V18.7501C33 17.5938 32.1 16.6667 31 16.6667Z" fill="#C1C1C1"/>
</svg>
