<svg width="32" height="32" viewBox="0 0 32 32" fill="none" xmlns="http://www.w3.org/2000/svg">
<path d="M31.3334 22.6667L24.6667 29.3334L20 24.6667L22 22.6667L24.6667 25.3334L29.3334 20.6667L31.3334 22.6667ZM8.00004 2.66675C6.52004 2.66675 5.33337 3.85341 5.33337 5.33341V26.6667C5.33337 28.1467 6.52004 29.3334 8.00004 29.3334H18.4134C17.7067 28.1201 17.3334 26.7334 17.3334 25.3334C17.3334 24.8934 17.3734 24.4401 17.44 24.0001H8.00004V21.3334H18.4134C19.0267 20.2667 19.88 19.3334 20.9067 18.6667H8.00004V16.0001H24V17.4401C24.44 17.3734 24.8934 17.3334 25.3334 17.3334C25.7867 17.3334 26.2267 17.3734 26.6667 17.4401V10.6667L18.6667 2.66675M17.3334 4.66675L24.6667 12.0001H17.3334V4.66675Z" fill="#0570C7"/>
</svg>
