<svg width="32" height="32" viewBox="0 0 32 32" fill="none" xmlns="http://www.w3.org/2000/svg">
<path d="M15.3044 5.33325C12.371 5.33325 9.97103 7.73325 9.97103 10.6666C9.97103 13.5999 12.371 15.9999 15.3044 15.9999C18.2377 15.9999 20.6377 13.5999 20.6377 10.6666C20.6377 7.73325 18.2377 5.33325 15.3044 5.33325ZM15.3044 18.6666C9.4377 18.6666 4.6377 21.0666 4.6377 23.9999V26.6666H17.3044C16.9044 25.5999 16.6377 24.5333 16.6377 23.3333C16.6377 21.7333 17.0377 20.2666 17.8377 18.7999C17.0377 18.7999 16.2377 18.6666 15.3044 18.6666Z" fill="#0570C7"/>
<path d="M27.4456 21.2172L22.1123 21.2172L22.1123 18.5505L18.1123 22.5505L22.1123 26.5505L22.1123 23.8839L27.4456 23.8839L27.4456 21.2172Z" fill="#0570C7"/>
</svg>
