<svg width="48" height="48" viewBox="0 0 48 48" fill="none" xmlns="http://www.w3.org/2000/svg">
<path d="M31 24C36 24 40 28 40 33C40 34.76 39.5 36.42 38.62 37.8L44.78 44L42 46.78L35.76 40.64C34.38 41.5 32.74 42 31 42C26 42 22 38 22 33C22 28 26 24 31 24ZM31 28C29.6739 28 28.4021 28.5268 27.4645 29.4645C26.5268 30.4021 26 31.6739 26 33C26 34.3261 26.5268 35.5979 27.4645 36.5355C28.4021 37.4732 29.6739 38 31 38C32.3261 38 33.5979 37.4732 34.5355 36.5355C35.4732 35.5979 36 34.3261 36 33C36 31.6739 35.4732 30.4021 34.5355 29.4645C33.5979 28.5268 32.3261 28 31 28ZM14 30V34H18C18.28 37.1 19.6 39.88 21.62 42H10C7.78 42 6 40.2 6 38V10C6 7.78 7.78 6 10 6H38C39.0609 6 40.0783 6.42143 40.8284 7.17157C41.5786 7.92172 42 8.93913 42 10V26.06C39.7 22.42 35.64 20 31 20C28.46 20 26.08 20.74 24.08 22H14V26H20C19.28 27.2 18.68 28.56 18.34 30H14ZM34 18V14H14V18H34Z" fill="#0570C7"/>
</svg>
