<svg width="24" height="24" viewBox="0 0 24 24" fill="none" xmlns="http://www.w3.org/2000/svg">
<path d="M0 24V6C0 5.68174 0.126428 5.37652 0.351472 5.15147C0.576515 4.92643 0.88174 4.8 1.2 4.8H6V0H18V4.8H22.8C23.1183 4.8 23.4235 4.92643 23.6485 5.15147C23.8736 5.37652 24 5.68174 24 6V24H14.4V18H9.6V24H0ZM8.4 2.4V9.6H10.8V7.2H13.2V9.6H15.6V2.4H13.2V4.8H10.8V2.4H8.4ZM2.4 21.6H7.2V18H2.4V21.6ZM2.4 15.6H7.2V12H2.4V15.6ZM16.8 21.6H21.6V18H16.8V21.6ZM16.8 15.6H21.6V12H16.8V15.6ZM9.6 15.6H14.4V12H9.6V15.6Z" fill="white"/>
</svg>
