<svg width="19" height="24" viewBox="0 0 19 24" fill="none" xmlns="http://www.w3.org/2000/svg">
<path d="M9.52733 18.2857C10.1327 18.2857 10.7134 18.0449 11.1414 17.6162C11.5695 17.1876 11.81 16.6062 11.81 16C11.81 14.7314 10.7828 13.7143 9.52733 13.7143C8.92192 13.7143 8.3413 13.9551 7.91321 14.3838C7.48512 14.8124 7.24462 15.3938 7.24462 16C7.24462 16.6062 7.48512 17.1876 7.91321 17.6162C8.3413 18.0449 8.92192 18.2857 9.52733 18.2857ZM16.3755 8C16.9809 8 17.5615 8.24082 17.9896 8.66947C18.4177 9.09813 18.6582 9.67951 18.6582 10.2857V21.7143C18.6582 22.3205 18.4177 22.9019 17.9896 23.3305C17.5615 23.7592 16.9809 24 16.3755 24H2.6792C2.07378 24 1.49317 23.7592 1.06507 23.3305C0.636983 22.9019 0.396484 22.3205 0.396484 21.7143V10.2857C0.396484 9.01714 1.4237 8 2.6792 8H3.82055V5.71429C3.82055 4.19876 4.4218 2.74531 5.49203 1.67368C6.56226 0.602039 8.0138 0 9.52733 0C10.2768 0 11.0188 0.147804 11.7112 0.434974C12.4036 0.722144 13.0327 1.14306 13.5626 1.67368C14.0926 2.2043 14.5129 2.83423 14.7997 3.52752C15.0865 4.22081 15.2341 4.96388 15.2341 5.71429V8H16.3755ZM9.52733 2.28571C8.61921 2.28571 7.74828 2.64694 7.10615 3.28992C6.46401 3.9329 6.10326 4.80497 6.10326 5.71429V8H12.9514V5.71429C12.9514 4.80497 12.5906 3.9329 11.9485 3.28992C11.3064 2.64694 10.4354 2.28571 9.52733 2.28571Z" fill="#0570C7"/>
</svg>
