<svg width="65" height="57" viewBox="0 0 65 57" fill="none" xmlns="http://www.w3.org/2000/svg">
<mask id="path-1-outside-1_1024_16956" maskUnits="userSpaceOnUse" x="0" y="0" width="65" height="57" fill="black">
<rect fill="white" width="65" height="57"/>
<path d="M1 0H65V57H1V0Z"/>
</mask>
<path d="M2 57V0H0V57H2Z" fill="#DBDBDB" mask="url(#path-1-outside-1_1024_16956)"/>
<rect x="65" y="57" width="64" height="57" transform="rotate(180 65 57)" fill="white"/>
<path d="M23 21H25.5V36H23V21ZM26.75 21H28V36H26.75V21ZM29.25 21H33V36H29.25V21ZM34.25 21H35.5V36H34.25V21ZM38 21H40.5V36H38V21ZM41.75 21H43V36H41.75V21ZM20.5 18.5V23.5H18V18.5C18 17.837 18.2634 17.2011 18.7322 16.7322C19.2011 16.2634 19.837 16 20.5 16H25.5V18.5H20.5ZM45.5 16C46.163 16 46.7989 16.2634 47.2678 16.7322C47.7366 17.2011 48 17.837 48 18.5V23.5H45.5V18.5H40.5V16H45.5ZM20.5 33.5V38.5H25.5V41H20.5C19.837 41 19.2011 40.7366 18.7322 40.2678C18.2634 39.7989 18 39.163 18 38.5V33.5H20.5ZM45.5 38.5V33.5H48V38.5C48 39.163 47.7366 39.7989 47.2678 40.2678C46.7989 40.7366 46.163 41 45.5 41H40.5V38.5H45.5Z" fill="#0570C7"/>
</svg>
