<svg width="25" height="24" viewBox="0 0 25 24" fill="none" xmlns="http://www.w3.org/2000/svg">
<path d="M12.3846 0C13.9738 0 15.4979 0.632141 16.6217 1.75736C17.7454 2.88258 18.3767 4.4087 18.3767 6C18.3767 7.5913 17.7454 9.11742 16.6217 10.2426C15.4979 11.3679 13.9738 12 12.3846 12C10.7954 12 9.2713 11.3679 8.14756 10.2426C7.02382 9.11742 6.39251 7.5913 6.39251 6C6.39251 4.4087 7.02382 2.88258 8.14756 1.75736C9.2713 0.632141 10.7954 0 12.3846 0ZM12.3846 15C19.0059 15 24.3689 17.685 24.3689 21V24H0.400391V21C0.400391 17.685 5.76333 15 12.3846 15Z" fill="#0570C7"/>
</svg>
