<svg width="388" height="124" viewBox="0 0 388 124" fill="none" xmlns="http://www.w3.org/2000/svg">
<path d="M86.9279 72.6706L30.0167 101.436V86.801L79.877 62.0728C83.9061 60.0542 85.417 55.2599 83.4025 51.475C82.647 49.961 81.3879 48.6994 79.877 47.9424L0.805664 7.56985L15.4112 0L87.1798 36.3353C97.2525 41.3819 101.282 53.7459 96.2453 63.8391C93.9789 67.624 90.9571 70.9043 86.9279 72.6706Z" fill="url(#paint0_linear_542_5211)"/>
<path d="M80.1288 47.69L0.805664 7.56982V116.071L15.4112 123.641V29.7747L76.3515 60.3064C77.3588 60.8111 78.3661 61.5681 78.8697 62.5774L79.877 62.0728C83.9061 60.0541 85.417 55.2599 83.4025 51.475C82.8988 49.7087 81.6397 48.447 80.1288 47.69Z" fill="white"/>
<path d="M98.2599 55.0077C98.2599 62.5776 93.7272 69.6428 86.9281 72.923L30.0168 101.436V37.0924L15.4113 29.7749V123.641L86.9281 87.5581C93.7272 84.0255 98.0081 77.2126 98.0081 69.3904L98.2599 55.0077Z" fill="url(#paint1_linear_542_5211)"/>
<path d="M86.9279 72.6706L30.0167 101.436V86.801L79.877 62.0728C83.9061 60.0542 85.417 55.2599 83.4025 51.475C82.647 49.961 81.3879 48.6994 79.877 47.9424L0.805664 7.56985L15.4112 0L87.1798 36.3353C97.2525 41.3819 101.282 53.7459 96.2453 63.8391C93.9789 67.624 90.9571 70.9043 86.9279 72.6706Z" fill="url(#paint2_linear_542_5211)"/>
<path d="M80.1288 47.69L0.805664 7.56982V116.071L15.4112 123.641V29.7747L76.3515 60.3064C77.3588 60.8111 78.3661 61.5681 78.8697 62.5774L79.877 62.0728C83.9061 60.0541 85.417 55.2599 83.4025 51.475C82.8988 49.7087 81.6397 48.447 80.1288 47.69Z" fill="#185092"/>
<path d="M98.2599 55.0077C98.2599 62.5776 93.7272 69.6428 86.9281 72.923L30.0168 101.436V37.0924L15.4113 29.7749V123.641L86.9281 87.5581C93.7272 84.0255 98.0081 77.2126 98.0081 69.3904L98.2599 55.0077Z" fill="url(#paint3_linear_542_5211)"/>
<path d="M171.814 42.6435C168.793 40.3726 165.519 38.8586 161.994 38.1016C157.964 37.0923 153.935 36.5877 149.906 36.5877H132.531V89.5766H151.417C155.194 89.5766 158.972 89.0719 162.749 87.8103C166.274 86.801 169.296 85.0347 172.318 82.7637C175.088 80.4928 177.355 77.7172 178.865 74.4369C180.628 70.9043 181.384 67.1194 181.384 63.0821C181.384 58.7926 180.628 54.503 178.865 50.718C177.103 47.6901 174.836 44.9145 171.814 42.6435ZM167.534 70.3997C166.526 72.4183 165.267 74.1846 163.504 75.4462C161.742 76.7079 159.727 77.7172 157.461 78.2218C154.943 78.7265 152.424 78.9788 149.906 78.9788H143.863V47.4378H150.662C152.928 47.4378 155.446 47.6901 157.713 48.4471C159.727 48.9517 161.742 49.9611 163.504 51.2227C165.267 52.4843 166.526 53.9983 167.534 56.0169C168.541 58.0356 169.044 60.5588 169.044 62.8298C169.044 65.3531 168.541 67.8764 167.534 70.3997ZM215.127 57.5309C213.617 55.7646 211.854 54.503 209.839 53.746C207.573 52.7367 205.306 52.4843 202.788 52.4843C200.018 52.4843 197.5 52.989 194.982 53.746C192.716 54.503 190.449 56.0169 188.686 57.5309C186.924 59.2972 185.413 61.3158 184.405 63.5868C182.391 68.6334 182.391 74.1846 184.405 79.2311C185.413 81.5021 186.924 83.5207 188.686 85.287C190.449 87.0533 192.716 88.315 194.982 89.0719C197.5 90.0813 200.27 90.3336 202.788 90.3336C205.81 90.3336 208.58 89.5766 211.35 88.5673C214.12 87.3056 216.387 85.5394 218.149 83.2684L210.343 77.4649C209.336 78.7265 208.328 79.7358 207.069 80.7451C205.558 81.5021 204.047 82.0068 202.536 82.0068C200.522 82.0068 198.507 81.5021 196.996 79.9881C195.486 78.7265 194.478 76.9602 193.975 74.9416H219.912V71.409C219.912 68.6334 219.66 66.1101 218.653 63.5868C217.897 61.3158 216.638 59.2972 215.127 57.5309ZM193.723 67.3717C193.723 65.6054 194.478 63.8391 195.989 62.5775C196.745 61.8205 197.5 61.3158 198.507 61.0635C199.515 60.5589 200.774 60.5588 201.781 60.5588C203.544 60.5588 205.558 61.3158 206.817 62.5775C208.077 63.8391 208.832 65.6054 208.58 67.3717H193.723ZM250.13 33.0551V57.0263H249.879C248.619 55.26 246.857 53.9983 244.842 53.2413C242.828 52.4843 240.561 52.232 238.295 52.232C235.777 52.232 233.51 52.7367 231.496 53.746C229.481 54.7553 227.718 56.2693 226.208 58.0356C224.697 59.8019 223.689 62.0728 222.934 64.0914C222.178 66.3624 221.675 68.8857 221.675 71.409C221.675 73.9323 222.178 76.4555 222.934 78.9788C223.689 81.2498 224.948 83.2684 226.459 85.0347C227.97 86.801 229.985 88.0626 232.251 88.8196C234.518 89.8289 237.036 90.3336 239.554 90.0813C240.813 90.0813 242.072 89.8289 243.079 89.5766C244.087 89.3243 245.346 88.8196 246.353 88.315C247.36 87.8103 248.116 87.3056 248.871 86.5487C249.627 86.044 250.13 85.287 250.634 84.53H250.886V89.3243H261.21V32.8027H250.13V33.0551ZM248.619 77.9695C244.842 81.2498 239.302 81.2498 235.525 77.9695C234.014 76.2032 233.007 73.6799 233.258 71.409C233.258 68.8857 234.014 66.6147 235.525 64.8484C239.302 61.5682 244.842 61.5682 248.619 64.8484C250.13 66.6147 251.138 69.138 250.886 71.409C251.138 73.9323 250.13 76.2032 248.619 77.9695ZM295.458 57.2786C294.199 55.5123 292.436 54.503 290.422 53.746C287.903 52.7367 285.133 52.4843 282.363 52.4843C279.341 52.4843 276.571 52.989 273.801 53.9983C271.031 55.0076 268.513 56.5216 266.499 58.2879L272.542 64.3438C273.801 63.0821 275.061 62.0728 276.571 61.0635C278.082 60.3065 279.845 59.8019 281.608 59.8019C283.371 59.8019 285.385 60.5588 286.644 61.5682C288.155 62.8298 288.911 64.5961 288.659 66.3624H283.622C281.86 66.3624 280.097 66.6147 278.082 66.8671C276.32 67.1194 274.557 67.3717 272.794 68.1287C271.283 68.6334 269.772 69.3903 268.261 70.3997C267.002 71.409 265.743 72.6706 264.988 73.9323C264.232 75.6985 263.729 77.4648 263.729 79.2311C263.729 80.9974 263.98 82.5114 264.736 84.0254C265.491 85.287 266.247 86.5487 267.506 87.558C268.765 88.5673 270.024 89.3243 271.535 89.5766C275.312 90.5859 279.341 90.5859 282.867 89.0719C284.881 88.315 286.644 86.801 287.903 84.7824H288.155V89.3243H298.48V70.9043C298.48 68.1287 298.228 65.6054 297.724 62.8298C297.724 61.0635 296.969 59.0449 295.458 57.2786ZM288.659 75.9509C288.659 77.9695 287.652 79.9881 286.141 80.9974C285.385 81.5021 284.378 82.0068 283.371 82.2591C282.363 82.5114 281.356 82.7637 280.097 82.7637C278.838 82.7637 277.579 82.5114 276.571 81.7544C275.564 81.2498 274.809 79.9881 274.809 78.7265C274.809 77.7172 275.312 76.4555 276.068 75.6986C276.823 74.9416 278.082 74.4369 279.09 74.1846L282.867 73.4276H288.911V75.9509H288.659ZM303.264 33.0551H314.344V89.5766H303.264V33.0551ZM341.793 53.2413H352.873V89.5766H342.045V84.53C341.541 85.287 341.037 86.044 340.534 86.5487C339.778 87.3056 339.023 87.8103 338.267 88.315C337.26 88.8196 336.253 89.3243 335.245 89.5766C333.986 89.8289 332.727 90.0813 331.468 90.0813C329.202 90.0813 326.684 89.8289 324.669 88.8196C322.906 88.0626 321.647 86.801 320.64 85.287C319.633 83.5207 318.877 81.7544 318.625 79.7358C318.373 77.4648 318.122 75.1939 318.122 72.9229V52.7367H329.202V73.9323C329.202 74.9416 329.454 75.9509 329.957 76.9602C330.209 77.9695 330.964 78.7265 331.72 79.2311C332.727 79.9881 333.986 80.2405 334.994 80.2405C336.253 80.2405 337.512 79.9881 338.519 79.4835C339.275 78.9788 340.03 78.2218 340.534 77.4649C341.037 76.4555 341.289 75.4462 341.541 74.4369C341.793 73.1753 341.793 72.166 341.793 70.9043V53.2413ZM387.372 78.4742C387.372 80.4928 386.868 82.5114 385.861 84.2777C384.854 85.7917 383.595 87.0533 381.832 88.0626C380.069 89.072 378.307 89.5766 376.544 90.0813C374.529 90.3336 372.515 90.5859 370.752 90.5859C368.234 90.5859 365.464 90.3336 363.197 89.5766C360.679 88.8196 358.413 87.558 356.65 85.7917L363.449 78.2218C364.456 79.4835 365.464 80.4928 366.975 81.2498C368.234 82.0068 369.745 82.2591 371.507 82.2591C372.766 82.2591 373.774 82.0068 375.033 81.7544C376.04 81.5021 376.544 80.7451 376.544 79.7358C376.544 78.7265 376.04 77.9695 375.285 77.7172C374.277 77.2125 373.018 76.7079 371.759 76.4555L367.226 75.4462C365.716 75.1939 364.205 74.4369 362.694 73.6799C359.42 72.166 357.657 68.6334 357.909 65.1008C357.909 63.0821 358.413 61.3158 359.168 59.5495C359.924 58.0356 361.183 56.7739 362.694 55.7646C364.205 54.7553 365.716 53.9983 367.478 53.4937C369.241 52.989 371.256 52.7367 373.018 52.7367C375.537 52.7367 377.803 52.989 380.321 53.746C382.587 54.503 384.854 55.7646 386.617 57.5309L379.817 64.3438C378.307 62.3251 375.788 61.3158 373.27 61.3158C372.263 61.3158 371.256 61.5682 370.5 62.0728C369.745 62.5775 368.989 63.3345 369.241 64.3438C369.241 65.3531 369.745 66.1101 370.5 66.3624C371.507 66.8671 372.766 67.1194 374.026 67.3717L378.558 68.381C380.069 68.6334 381.58 69.3903 383.091 70.1473C384.602 70.9043 385.609 72.166 386.617 73.4276C386.868 74.6892 387.372 76.7079 387.372 78.4742Z" fill="#185092"/>
<defs>
<linearGradient id="paint0_linear_542_5211" x1="49.5227" y1="0" x2="49.5227" y2="101.31" gradientUnits="userSpaceOnUse">
<stop offset="0.16" stop-color="#0081BE"/>
<stop offset="0.27" stop-color="#2B8CC1"/>
<stop offset="0.4" stop-color="#639BC5"/>
<stop offset="0.59" stop-color="#88B0D1"/>
<stop offset="0.64" stop-color="#8CB2D2"/>
<stop offset="0.7" stop-color="#99B8D5"/>
<stop offset="0.77" stop-color="#AFC3DB"/>
<stop offset="0.83" stop-color="#CED2E2"/>
<stop offset="0.91" stop-color="#E2E4EC"/>
<stop offset="1" stop-color="#F6F6F6"/>
</linearGradient>
<linearGradient id="paint1_linear_542_5211" x1="15.4768" y1="76.6878" x2="98.2096" y2="76.6878" gradientUnits="userSpaceOnUse">
<stop stop-color="#0078B3"/>
<stop offset="0.36" stop-color="#468DC4"/>
<stop offset="0.42" stop-color="#5695C9"/>
<stop offset="0.58" stop-color="#7FA9D4"/>
<stop offset="0.66" stop-color="#8FB1D9"/>
<stop offset="0.69" stop-color="#99B7DC"/>
<stop offset="0.82" stop-color="#BFCFE9"/>
<stop offset="0.93" stop-color="#D6DDF0"/>
<stop offset="1" stop-color="#DEE2F3"/>
</linearGradient>
<linearGradient id="paint2_linear_542_5211" x1="49.5227" y1="0" x2="49.5227" y2="101.31" gradientUnits="userSpaceOnUse">
<stop stop-color="#4A96D2"/>
<stop offset="0.13" stop-color="#4A96D2"/>
<stop offset="0.28" stop-color="#6AA3D1"/>
<stop offset="0.5" stop-color="#95B4D1"/>
<stop offset="0.71" stop-color="#B4C0D1"/>
<stop offset="0.88" stop-color="#C7C8D1"/>
<stop offset="0.99" stop-color="#CECBD1"/>
<stop offset="1" stop-color="#CECBD1"/>
</linearGradient>
<linearGradient id="paint3_linear_542_5211" x1="15.4768" y1="76.6878" x2="98.2096" y2="76.6878" gradientUnits="userSpaceOnUse">
<stop stop-color="#4A96D2"/>
<stop offset="0.09" stop-color="#4A96D2"/>
<stop offset="0.54" stop-color="#2B6BAA"/>
<stop offset="0.87" stop-color="#185092"/>
<stop offset="1" stop-color="#185092"/>
</linearGradient>
</defs>
</svg>
