<svg width="26" height="30" viewBox="0 0 26 30" fill="none" xmlns="http://www.w3.org/2000/svg">
<path d="M25.7143 24.2857V25.7143H0V24.2857L2.85714 21.4286V12.8571C2.85714 8.42857 5.75714 4.52857 10 3.27143C10 3.12857 10 3 10 2.85714C10 2.09938 10.301 1.37266 10.8368 0.836838C11.3727 0.301019 12.0994 0 12.8571 0C13.6149 0 14.3416 0.301019 14.8774 0.836838C15.4133 1.37266 15.7143 2.09938 15.7143 2.85714C15.7143 3 15.7143 3.12857 15.7143 3.27143C19.9571 4.52857 22.8571 8.42857 22.8571 12.8571V21.4286L25.7143 24.2857ZM15.7143 27.1429C15.7143 27.9006 15.4133 28.6273 14.8774 29.1632C14.3416 29.699 13.6149 30 12.8571 30C12.0994 30 11.3727 29.699 10.8368 29.1632C10.301 28.6273 10 27.9006 10 27.1429" fill="white"/>
</svg>
