<svg width="30" height="30" viewBox="0 0 30 30" fill="none" xmlns="http://www.w3.org/2000/svg">
<path d="M20.4712 15.2188L19.2337 16.4838C18.2437 17.4738 17.625 18.3125 17.625 20.375H14.875V19.6875C14.875 18.1613 15.4937 16.7863 16.4838 15.7963L18.1887 14.0637C18.6975 13.5687 19 12.8813 19 12.125C19 10.5988 17.7625 9.375 16.25 9.375C15.5207 9.375 14.8212 9.66473 14.3055 10.1805C13.7897 10.6962 13.5 11.3957 13.5 12.125H10.75C10.75 10.6663 11.3295 9.26736 12.3609 8.23591C13.3924 7.20446 14.7913 6.625 16.25 6.625C17.7087 6.625 19.1076 7.20446 20.1391 8.23591C21.1705 9.26736 21.75 10.6663 21.75 12.125C21.75 13.335 21.255 14.4213 20.4712 15.2188ZM17.625 25.875H14.875V23.125H17.625M16.25 2.5C14.4443 2.5 12.6563 2.85565 10.9881 3.54666C9.31988 4.23766 7.80409 5.25048 6.52728 6.52728C3.94866 9.10591 2.5 12.6033 2.5 16.25C2.5 19.8967 3.94866 23.3941 6.52728 25.9727C7.80409 27.2495 9.31988 28.2623 10.9881 28.9533C12.6563 29.6443 14.4443 30 16.25 30C19.8967 30 23.3941 28.5513 25.9727 25.9727C28.5513 23.3941 30 19.8967 30 16.25C30 8.64625 23.8125 2.5 16.25 2.5Z" fill="#0570C7"/>
</svg>
