<svg width="24" height="24" viewBox="0 0 24 24" fill="none" xmlns="http://www.w3.org/2000/svg">
<path d="M21 18C20.844 18 20.688 18 20.532 18.048L18.6 14.148C19.14 13.608 19.5 12.852 19.5 12C19.5 10.344 18.156 9 16.5 9C16.344 9 16.2 9 16.032 9.048L14.076 5.148C14.652 4.608 15 3.852 15 3C15 1.344 13.656 0 12 0C10.344 0 9 1.344 9 3C9 3.852 9.348 4.608 9.912 5.148L7.968 9.048C7.8 9 7.656 9 7.5 9C5.844 9 4.5 10.344 4.5 12C4.5 12.852 4.86 13.608 5.4 14.148L3.468 18.048C3.312 18 3.156 18 3 18C1.344 18 0 19.344 0 21C0 22.656 1.344 24 3 24C4.656 24 6 22.656 6 21C6 20.16 5.652 19.392 5.088 18.852L7.032 14.952C7.2 15 7.344 15 7.5 15C7.656 15 7.8 15 7.968 14.952L9.924 18.852C9.36 19.392 9 20.16 9 21C9 22.656 10.344 24 12 24C13.656 24 15 22.656 15 21C15 19.344 13.656 18 12 18C11.844 18 11.688 18 11.532 18.048L9.6 14.148C10.152 13.608 10.5 12.852 10.5 12C10.5 11.148 10.152 10.392 9.6 9.852L11.532 5.952C11.688 6 11.844 6 12 6C12.156 6 12.312 6 12.468 5.952L14.4 9.852C13.86 10.392 13.5 11.16 13.5 12C13.5 13.656 14.844 15 16.5 15C16.656 15 16.8 15 16.968 14.952L18.924 18.852C18.36 19.392 18 20.16 18 21C18 22.656 19.344 24 21 24C22.656 24 24 22.656 24 21C24 19.344 22.656 18 21 18Z" fill="white"/>
</svg>
