<svg width="22" height="25" viewBox="0 0 22 25" fill="none" xmlns="http://www.w3.org/2000/svg">
<path d="M13.2 13.2H14.85V16.302L17.534 17.853L16.709 19.283L13.2 17.259V13.2ZM17.6 7.7H2.2V19.8H7.337C6.864 18.799 6.6 17.677 6.6 16.5C6.6 14.4578 7.41125 12.4993 8.85528 11.0553C10.2993 9.61125 12.2578 8.8 14.3 8.8C15.477 8.8 16.599 9.064 17.6 9.537V7.7ZM2.2 22C0.979 22 0 21.01 0 19.8V4.4C0 3.179 0.979 2.2 2.2 2.2H3.3V0H5.5V2.2H14.3V0H16.5V2.2H17.6C18.1835 2.2 18.7431 2.43178 19.1556 2.84436C19.5682 3.25694 19.8 3.81652 19.8 4.4V11.11C21.164 12.496 22 14.399 22 16.5C22 18.5422 21.1888 20.5007 19.7447 21.9447C18.3007 23.3888 16.3422 24.2 14.3 24.2C12.199 24.2 10.296 23.364 8.91 22H2.2ZM14.3 11.165C12.8851 11.165 11.5281 11.7271 10.5276 12.7276C9.52708 13.7281 8.965 15.0851 8.965 16.5C8.965 19.448 11.352 21.835 14.3 21.835C15.0006 21.835 15.6943 21.697 16.3416 21.4289C16.9889 21.1608 17.577 20.7678 18.0724 20.2724C18.5678 19.777 18.9608 19.1889 19.2289 18.5416C19.497 17.8943 19.635 17.2006 19.635 16.5C19.635 13.552 17.248 11.165 14.3 11.165Z" fill="#0570C7"/>
</svg>
