<svg width="30" height="30" viewBox="0 0 30 30" fill="none" xmlns="http://www.w3.org/2000/svg">
<path d="M13.6364 0H2.72727C1.22727 0 0 1.22727 0 2.72727V19.0909L4.09091 15H10.9091V13.6364C10.9091 10.6364 13.35 8.18182 16.3636 8.18182V2.72727C16.3636 1.22727 15.1364 0 13.6364 0ZM13.6364 4.09091H11.5909C11.1273 5.71364 10.2818 7.22727 9.10909 8.53636L9.08182 8.56364L10.8 10.2682L10.2955 11.6455L8.18182 9.54545L4.77273 12.9545L3.83182 11.9591L7.28182 8.56364C6.43636 7.62273 5.75455 6.57273 5.26364 5.45455H6.61364C7.03636 6.27273 7.55455 7.05 8.18182 7.74545C9.16364 6.65455 9.87273 5.41364 10.3227 4.09091H2.72727V2.72727H7.5V1.36364H8.86364V2.72727H13.6364V4.09091ZM27.2727 10.9091H16.3636C14.8636 10.9091 13.6364 12.1364 13.6364 13.6364V23.1818C13.6364 24.6818 14.8636 25.9091 16.3636 25.9091H25.9091L30 30V13.6364C30 12.1364 28.7727 10.9091 27.2727 10.9091ZM25.4045 24.5455L24.2455 21.4773H19.3909L18.2455 24.5455H16.2L20.7955 12.2727H22.8409L27.45 24.5455H25.4045ZM21.8182 15L23.4818 19.4318H20.1682L21.8182 15Z" fill="#0570C7"/>
</svg>
