<svg width="26" height="24" viewBox="0 0 26 24" fill="none" xmlns="http://www.w3.org/2000/svg">
<path d="M22.7368 5.05263H17.6842V2.52632C17.6842 1.8563 17.418 1.21372 16.9443 0.739941C16.4705 0.266165 15.8279 0 15.1579 0H10.1053C8.70316 0 7.57895 1.12421 7.57895 2.52632V5.05263H2.52632C1.12421 5.05263 0 6.17684 0 7.57895V21.4737C0 22.1437 0.266165 22.7863 0.739941 23.2601C1.21372 23.7338 1.8563 24 2.52632 24H22.7368C23.4069 24 24.0494 23.7338 24.5232 23.2601C24.997 22.7863 25.2632 22.1437 25.2632 21.4737V7.57895C25.2632 6.90893 24.997 6.26635 24.5232 5.79257C24.0494 5.3188 23.4069 5.05263 22.7368 5.05263ZM10.1053 2.52632H15.1579V5.05263H10.1053V2.52632ZM12.6316 8.8421C13.4691 8.8421 14.2723 9.17481 14.8645 9.76703C15.4568 10.3593 15.7895 11.1625 15.7895 12C15.7895 12.8375 15.4568 13.6407 14.8645 14.233C14.2723 14.8252 13.4691 15.1579 12.6316 15.1579C11.7941 15.1579 10.9908 14.8252 10.3986 14.233C9.80639 13.6407 9.47368 12.8375 9.47368 12C9.47368 11.1625 9.80639 10.3593 10.3986 9.76703C10.9908 9.17481 11.7941 8.8421 12.6316 8.8421ZM18.9474 21.4737H6.31579V19.8947C6.31579 18.1516 9.14526 16.7368 12.6316 16.7368C16.1179 16.7368 18.9474 18.1516 18.9474 19.8947V21.4737Z" fill="white"/>
</svg>
